<?xml version="1.0" encoding="iso-8859-1"?>
<!-- Uploaded to: SVG Repo, www.svgrepo.com, Generator: SVG Repo Mixer Tools -->
<svg height="800px" width="800px" version="1.1" id="Capa_1" xmlns="http://www.w3.org/2000/svg" xmlns:xlink="http://www.w3.org/1999/xlink" 
	 viewBox="0 0 512 512" xml:space="preserve">
<g>
	<g>
		<path style="fill:#B2F3FF;" d="M480,0H32C18.766,0,8,10.766,8,24v38.578c0,8.109,3.039,15.844,8.555,21.773l187.172,210.188
			c2.758,2.969,4.273,6.828,4.273,10.883v130.086c0,10.43,5.102,20.227,13.648,26.211l69.766,48.836
			c1.367,0.961,2.977,1.445,4.586,1.445c1.266,0,2.531-0.297,3.695-0.906c2.648-1.375,4.305-4.109,4.305-7.094V305.422
			c0-4.055,1.516-7.914,4.273-10.883L495.445,84.352c5.516-5.93,8.555-13.664,8.555-21.773V24C504,10.766,493.234,0,480,0z"/>
	</g>
	<g>
		<path style="fill:#51DBFF;" d="M8.133,64c0.337,7.581,3.233,14.774,8.421,20.352l187.172,210.188
			c0.423,0.455,0.759,0.966,1.123,1.461h102.302c0.363-0.495,0.7-1.006,1.123-1.461L495.445,84.352
			c5.188-5.578,8.084-12.771,8.421-20.352H8.133z"/>
	</g>
	<g>
		<path style="fill:#51DBFF;" d="M256,0H32C18.766,0,8,10.766,8,24v38.578c0,8.109,3.039,15.844,8.555,21.773l187.172,210.188
			c2.758,2.969,4.273,6.828,4.273,10.883v130.086c0,10.43,5.102,20.227,13.648,26.211L256,485.765V0z"/>
	</g>
	<g>
		<path style="fill:#45BDF0;" d="M256,296V64H8.133c0.167,3.772,0.974,7.446,2.375,10.875c0.116,0.279,0.285,0.533,0.409,0.809
			c0.625,1.412,1.304,2.803,2.134,4.114c1.028,1.604,2.185,3.137,3.503,4.554l187.172,210.188c0.423,0.455,0.759,0.966,1.123,1.461
			H256z"/>
	</g>
	<g>
		<path style="fill:#527991;" d="M256,24H12C5.373,24,0,18.627,0,12v0C0,5.373,5.373,0,12,0l244,0V24z"/>
	</g>
	<g>
		<path style="fill:#45BDF0;" d="M500,24H256V0l244,0c6.627,0,12,5.373,12,12v0C512,18.627,506.627,24,500,24z"/>
	</g>
</g>
</svg>