<?xml version="1.0" encoding="utf-8"?><!-- Uploaded to: SVG Repo, www.svgrepo.com, Generator: SVG Repo Mixer Tools -->
<svg width="800px" height="800px" viewBox="0 0 24 24" fill="none" xmlns="http://www.w3.org/2000/svg">
<path d="M15.2458 13V15M15.2458 18H15.2558M8 8V12M5.5 19.9203C5.34666 19.8886 5.21397 19.8441 5.09202 19.782C4.71569 19.5903 4.40973 19.2843 4.21799 18.908C4 18.4802 4 17.9201 4 16.8V7.2C4 6.0799 4 5.51984 4.21799 5.09202C4.40973 4.71569 4.71569 4.40973 5.09202 4.21799C5.51984 4 6.0799 4 7.2 4H16.8C17.9201 4 18.4802 4 18.908 4.21799C19.2843 4.40973 19.5903 4.71569 19.782 5.09202C20 5.51984 20 6.0799 20 7.2V7.5M13.4236 21H17.0682C18.7826 21 19.6399 21 20.1561 20.6389C20.6069 20.3236 20.908 19.8366 20.9884 19.2924C21.0805 18.6691 20.6971 17.9024 19.9304 16.3689L18.1081 12.7244C17.1869 10.8819 16.7263 9.96072 16.103 9.66511C15.5606 9.40785 14.9313 9.40785 14.3889 9.66511C13.7656 9.96072 13.305 10.8819 12.3837 12.7244L10.5615 16.3689C9.79474 17.9024 9.41138 18.6691 9.50346 19.2924C9.58387 19.8366 9.88489 20.3236 10.3357 20.6389C10.852 21 11.7092 21 13.4236 21Z" stroke="#000000" stroke-width="2" stroke-linecap="round" stroke-linejoin="round"/>
</svg>